HIERARCHY
ROOT Hips
{
	OFFSET -0.001795 -0.223333 0.028219
	CHANNELS 6 Xposition Yposition Zposition Zrotation Yrotation Xrotation 
	JOINT LeftUpLeg
	{
		OFFSET 0.069520 -0.091406 -0.006815
		CHANNELS 3 Zrotation Yrotation Xrotation
		JOINT LeftLeg
		{
			OFFSET 0.034277 -0.375199 -0.004496
			CHANNELS 3 Zrotation Yrotation Xrotation
			JOINT LeftFoot
			{
				OFFSET -0.013596 -0.397961 -0.043693
				CHANNELS 3 Zrotation Yrotation Xrotation
				JOINT LeftToe
				{
					OFFSET 0.026358 -0.055791 0.119288
					CHANNELS 3 Zrotation Yrotation Xrotation
					End Site
					{
						OFFSET 0.000000 0.000000 0.000000
					}
				}
			}
		}
	}
	JOINT RightUpLeg
	{
		OFFSET -0.067670 -0.090522 -0.004320
		CHANNELS 3 Zrotation Yrotation Xrotation
		JOINT RightLeg
		{
			OFFSET -0.038290 -0.382569 -0.008850
			CHANNELS 3 Zrotation Yrotation Xrotation
			JOINT RightFoot
			{
				OFFSET 0.015774 -0.398415 -0.042312
				CHANNELS 3 Zrotation Yrotation Xrotation
				JOINT RightToe
				{
					OFFSET -0.025372 -0.048144 0.123348
					CHANNELS 3 Zrotation Yrotation Xrotation
					End Site
					{
						OFFSET 0.000000 0.000000 0.000000
					}
				}
			}
		}
	}
	JOINT Spine
	{
		OFFSET -0.002533 0.108963 -0.026696
		CHANNELS 3 Zrotation Yrotation Xrotation
		JOINT Spine1
		{
			OFFSET 0.005487 0.135180 0.001092
			CHANNELS 3 Zrotation Yrotation Xrotation
			JOINT Spine2
			{
				OFFSET 0.001457 0.052922 0.025425
				CHANNELS 3 Zrotation Yrotation Xrotation
				JOINT Neck
				{
					OFFSET -0.002778 0.213870 -0.042857
					CHANNELS 3 Zrotation Yrotation Xrotation
					JOINT Head
					{
						OFFSET 0.005152 0.064970 0.051349
						CHANNELS 3 Zrotation Yrotation Xrotation
						End Site
						{
							OFFSET 0.000000 0.000000 0.000000
						}
					}
				}
				JOINT LeftShoulder
				{
					OFFSET 0.078845 0.121749 -0.034090
					CHANNELS 3 Zrotation Yrotation Xrotation
					JOINT LeftArm
					{
						OFFSET 0.090977 0.030469 -0.008868
						CHANNELS 3 Zrotation Yrotation Xrotation
						JOINT LeftForeArm
						{
							OFFSET 0.259612 -0.012772 -0.027456
							CHANNELS 3 Zrotation Yrotation Xrotation
							JOINT LeftHand
							{
								OFFSET 0.249234 0.008986 -0.001171
								CHANNELS 3 Zrotation Yrotation Xrotation
								End Site
								{
									OFFSET 0.000000 0.000000 0.000000
								}
							}
						}
					}
				}
				JOINT RightShoulder
				{
					OFFSET -0.081759 0.118833 -0.038615
					CHANNELS 3 Zrotation Yrotation Xrotation
					JOINT RightArm
					{
						OFFSET -0.096012 0.032551 -0.009143
						CHANNELS 3 Zrotation Yrotation Xrotation
						JOINT RightForeArm
						{
							OFFSET -0.253742 -0.013329 -0.021401
							CHANNELS 3 Zrotation Yrotation Xrotation
							JOINT RightHand
							{
								OFFSET -0.255298 0.007772 -0.005559
								CHANNELS 3 Zrotation Yrotation Xrotation
								End Site
								{
									OFFSET 0.000000 0.000000 0.000000
								}
							}
						}
					}
				}
			}
		}
	}
}
MOTION
Frames: 10
Frame Time: 0.050000
0.004831 0.944283 -0.005456 -3.121766 -55.024429 12.152473 10.391003 1.840804 -5.702174 -11.888230 3.332962 -1.332139 22.123416 30.384719 25.280937 0.000000 0.000000 0.000000 -2.682862 3.733548 -22.884600 0.148692 0.624732 7.048985 10.639077 3.295694 16.612261 0.000000 0.000000 0.000000 10.101847 -0.219195 22.513653 -1.230355 -0.528407 -15.275439 -5.376696 -11.659054 27.154219 13.222562 -11.293916 -10.883369 0.000000 0.000000 0.000000 -0.207911 -23.051813 11.774296 -12.184732 -45.662800 3.600950 23.724047 -28.497367 -3.886991 0.000000 0.000000 0.000000 14.562390 1.673483 -10.886769 51.016895 14.056391 0.234131 49.291304 54.495565 15.886443 0.000000 0.000000 0.000000 
0.005799 0.944430 -0.005428 -3.417691 -55.416390 12.113991 10.349516 1.838505 -5.373377 -11.689276 3.288388 -1.338583 22.390083 30.685215 25.457305 0.000000 0.000000 0.000000 -2.445669 3.736653 -22.816462 0.052784 0.659714 7.299696 10.897674 3.551841 16.767570 0.000000 0.000000 0.000000 10.136438 -0.165851 22.816558 -0.940020 -0.620818 -15.092273 -5.362397 -11.749119 26.887155 12.671095 -10.954767 -10.063059 0.000000 0.000000 0.000000 0.881786 -23.196751 11.234117 -10.673886 -45.750187 3.358098 24.904678 -27.671243 -3.952018 0.000000 0.000000 0.000000 14.618570 2.063499 -10.827021 51.221894 14.578091 0.514849 48.645860 54.756372 15.576953 0.000000 0.000000 0.000000 
0.006373 0.944151 -0.005012 -3.354429 -55.798306 11.464547 10.312580 1.825228 -4.682842 -11.861917 3.379305 -1.303377 22.492590 30.922650 25.403936 0.000000 0.000000 0.000000 -2.350949 3.618500 -22.361389 -0.108283 0.699201 7.557243 11.088290 3.987822 16.641725 0.000000 0.000000 0.000000 10.254674 -0.087254 23.284023 -0.596055 -0.730402 -15.035667 -5.764816 -11.982730 26.912714 12.506753 -10.905322 -10.181981 0.000000 0.000000 0.000000 1.939055 -23.611223 10.819202 -9.379630 -45.715571 3.162295 26.631768 -27.817499 -4.246013 0.000000 0.000000 0.000000 15.011147 2.595892 -11.002694 51.032103 15.013084 0.900051 47.589874 54.752014 14.990426 0.000000 0.000000 0.000000 
0.006793 0.944376 -0.004397 -3.473240 -56.748724 11.140313 10.088353 1.794890 -3.969168 -11.741597 3.371302 -1.475866 23.051233 31.470034 25.964583 0.000000 0.000000 0.000000 -2.154446 3.531492 -21.955771 -0.291198 0.703747 7.459349 11.674728 4.717039 16.859867 0.000000 0.000000 0.000000 10.462107 0.005692 23.657396 -0.449076 -0.791975 -15.251475 -6.290342 -12.126092 27.110717 11.489550 -10.393201 -10.008878 0.000000 0.000000 0.000000 3.383761 -23.801907 10.112414 -8.172433 -45.923132 3.148602 27.812826 -27.510073 -4.340062 0.000000 0.000000 0.000000 14.891403 3.233676 -10.935764 51.401894 15.652700 1.192269 47.150146 54.590483 14.422896 0.000000 0.000000 0.000000 
0.007163 0.944441 -0.003929 -3.192964 -57.458819 10.561855 9.845637 1.762767 -3.492364 -11.887830 3.465429 -1.469517 23.401623 31.792094 26.360460 0.000000 0.000000 0.000000 -2.078801 3.471327 -21.682325 -0.699938 0.733634 7.505194 12.070218 5.324023 16.894512 0.000000 0.000000 0.000000 10.335944 0.106861 23.817075 -0.529636 -0.788213 -15.763594 -6.446631 -12.457026 27.742830 11.082330 -10.258878 -10.225726 0.000000 0.000000 0.000000 5.094144 -24.097929 9.323905 -6.924115 -46.363585 3.234864 28.735325 -25.776476 -4.133679 0.000000 0.000000 0.000000 14.640684 3.431590 -11.025920 52.055088 16.360238 1.355944 47.576500 53.995946 14.102800 0.000000 0.000000 0.000000 
0.007550 0.944712 -0.003922 -3.072625 -58.185521 10.120942 9.868081 1.796341 -2.963730 -12.283634 3.630935 -1.573198 23.670224 31.986574 26.778152 0.000000 0.000000 0.000000 -2.138747 3.379086 -21.325887 -0.642133 0.713587 7.325679 12.519807 5.834713 17.117606 0.000000 0.000000 0.000000 10.304181 0.182189 23.885908 -0.237699 -0.870382 -16.333981 -7.312455 -12.872270 28.523042 10.221500 -9.917867 -10.484062 0.000000 0.000000 0.000000 7.199918 -24.435148 8.305350 -5.637040 -46.241695 3.306473 28.589038 -23.732225 -3.647396 0.000000 0.000000 0.000000 14.894424 4.034671 -11.411842 52.615625 16.559233 1.530661 49.294901 53.533514 14.364473 0.000000 0.000000 0.000000 
0.007979 0.945019 -0.004301 -2.983879 -58.723257 9.962829 9.751974 1.795849 -2.714519 -12.340765 3.655152 -1.780726 23.969109 32.166389 27.227560 0.000000 0.000000 0.000000 -2.047546 3.347193 -21.147596 -0.847356 0.687197 6.991963 12.911932 6.200065 17.357774 0.000000 0.000000 0.000000 10.045914 0.279292 24.028099 -0.097544 -0.898381 -17.208407 -7.473787 -13.348763 29.335214 9.110249 -9.425655 -10.924182 0.000000 0.000000 0.000000 8.782066 -24.620896 7.555159 -4.353415 -46.344865 3.332917 27.875774 -21.225329 -3.057189 0.000000 0.000000 0.000000 14.566727 4.376712 -11.506026 53.466758 17.189934 1.636127 51.289531 53.151517 14.675610 0.000000 0.000000 0.000000 
0.008284 0.944953 -0.004833 -2.875481 -59.186939 9.836069 9.663094 1.791478 -2.614535 -12.411801 3.694047 -1.834778 24.243653 32.387848 27.537405 0.000000 0.000000 0.000000 -2.097661 3.325364 -21.057892 -0.809390 0.657343 6.725671 13.181613 6.502244 17.498649 0.000000 0.000000 0.000000 9.960088 0.264244 23.612507 -0.168716 -0.889371 -17.111333 -7.787573 -13.647779 29.599594 8.318286 -9.025132 -11.013300 0.000000 0.000000 0.000000 9.873549 -24.610570 6.988455 -4.022653 -46.385496 3.519263 27.191978 -19.532435 -2.629408 0.000000 0.000000 0.000000 14.555900 4.472898 -11.757096 53.770331 17.367527 1.708396 53.687956 52.846479 15.342972 0.000000 0.000000 0.000000 
0.008443 0.944875 -0.005399 -2.641918 -59.577507 9.606050 9.564586 1.784958 -2.381662 -12.559749 3.729309 -2.136382 24.428906 32.515448 27.803080 0.000000 0.000000 0.000000 -2.087210 3.278168 -20.858789 -0.984395 0.618013 6.298054 13.447025 6.826639 17.591352 0.000000 0.000000 0.000000 9.792959 0.282672 23.369346 -0.303604 -0.860325 -17.216433 -7.874462 -13.592723 29.937916 7.830811 -8.771387 -10.946290 0.000000 0.000000 0.000000 9.699220 -24.408007 7.014026 -4.641603 -45.967701 3.646123 27.360613 -19.908667 -2.675538 0.000000 0.000000 0.000000 14.796026 4.484474 -12.088610 53.894228 17.294077 1.736649 55.046013 52.791059 15.858627 0.000000 0.000000 0.000000 
0.008371 0.945065 -0.005673 -2.471738 -60.262147 9.794631 9.227941 1.737613 -2.669011 -12.350237 3.689528 -2.151875 25.007578 32.864786 28.528149 0.000000 0.000000 0.000000 -2.243007 3.330061 -21.010090 -0.880364 0.559526 5.735333 13.854769 7.128953 17.928052 0.000000 0.000000 0.000000 9.775443 0.252201 22.843933 -0.849487 -0.731866 -17.335494 -7.567963 -12.884224 30.063147 8.081247 -8.903144 -10.799504 0.000000 0.000000 0.000000 8.962356 -23.937369 7.236055 -6.407921 -45.874305 4.056776 27.038836 -21.773015 -2.944921 0.000000 0.000000 0.000000 14.724690 4.045191 -12.222143 53.917621 16.851147 1.477841 56.687497 53.176339 16.811571 0.000000 0.000000 0.000000 
